<?xml version="1.0" encoding="UTF-8"?>
<svg id="_레이어_2" data-name="레이어 2" xmlns="http://www.w3.org/2000/svg" viewBox="0 0 54.25 45">
  <defs>
    <style>
      .cls-1 {
        fill-rule: evenodd;
      }

      .cls-1, .cls-2 {
        fill: #141313;
      }

      .cls-1, .cls-2, .cls-3, .cls-4, .cls-5 {
        stroke-width: 0px;
      }

      .cls-3 {
        fill: #131212;
      }

      .cls-4 {
        fill: #d4f85b;
      }

      .cls-5 {
        fill: #fff;
      }
    </style>
  </defs>
  <g id="_레이어_1-2" data-name="레이어 1">
    <g>
      <circle class="cls-5" cx="22.5" cy="22.5" r="10.69"/>
      <g>
        <path class="cls-4" d="m28.65,37.21c-1.19-.76-1.19-2.5,0-3.26l12.54-8.06,1.82-1.15c.68-.43,1.24-1.45,1.24-2.25,0-2.13-.32-4.33-1.05-6.59C40.55,7.7,33.22,1.67,24.62.85,10.82-.46-.66,11.15.89,25c1.12,10.01,9.21,18.05,19.22,19.12,4.84.52,9.4-.56,13.22-2.77.42-.24.42-.86.01-1.12l-4.7-3.02Zm-16.08-14.71c0-5.49,4.45-9.94,9.94-9.94s9.94,4.45,9.94,9.94-4.45,9.94-9.94,9.94-9.94-4.45-9.94-9.94Z"/>
        <path class="cls-2" d="m22.5,45c-.82,0-1.64-.04-2.47-.13C9.66,43.76,1.3,35.44.14,25.08c-.76-6.82,1.54-13.51,6.31-18.36C11.23,1.87,17.88-.55,24.69.1c8.9.84,16.44,6.96,19.22,15.58.72,2.23,1.08,4.52,1.08,6.82,0,1.07-.68,2.32-1.59,2.89l-1.82,1.15-12.54,8.05c-.35.22-.55.59-.55,1s.2.78.55,1l4.7,3.02c.42.27.66.73.65,1.23-.01.49-.27.93-.69,1.17-3.43,1.98-7.26,3-11.21,3Zm.02-43.5c-5.64,0-11.01,2.23-14.99,6.27C3.07,12.3.92,18.55,1.63,24.92c1.08,9.66,8.88,17.42,18.56,18.46,4.45.48,8.83-.43,12.67-2.61l-4.62-2.92c-.77-.5-1.23-1.34-1.23-2.26s.46-1.76,1.23-2.26l14.37-9.2c.47-.29.89-1.07.89-1.62,0-2.14-.34-4.28-1.01-6.36-2.55-7.92-9.76-13.77-17.93-14.54-.68-.06-1.36-.1-2.03-.1Zm-.02,31.69c-5.89,0-10.69-4.79-10.69-10.69s4.79-10.69,10.69-10.69,10.69,4.79,10.69,10.69-4.79,10.69-10.69,10.69Zm0-19.87c-5.07,0-9.19,4.12-9.19,9.19s4.12,9.19,9.19,9.19,9.19-4.12,9.19-9.19-4.12-9.19-9.19-9.19Z"/>
      </g>
      <circle class="cls-2" cx="22.5" cy="22.5" r="2.78"/>
      <path class="cls-2" d="m53.5,27.4l-9,5.78c-.32.21-.75-.02-.75-.41v-4.96c0-.39-.43-.62-.75-.41l-12.1,7.77c-.3.19-.3.63,0,.82l12.1,7.77c.32.21.75-.02.75-.41v-4.96c0-.39.43-.62.75-.41l9,5.78c.32.21.75-.02.75-.41v-15.55c0-.39-.43-.62-.75-.41Z"/>
      <path class="cls-3" d="m37.22,22.46c-.05,0-.1,0-.16-.01-.55-.09-.92-.6-.83-1.14.74-4.64-3.19-8.86-3.23-8.9-.38-.4-.36-1.03.04-1.41.4-.38,1.03-.36,1.41.04.19.2,4.65,4.96,3.76,10.59-.08.49-.5.84-.99.84Z"/>
      <path class="cls-1" d="m2.9,5.91c0-.62.5-1.12,1.12-1.12s1.12.5,1.12,1.12v14.98c0,.3.07.59.19.86l2.96,6.25c.34.73,1.15,1.11,1.84,1.53.31.19.58.46.78.8l2.13,3.69c.62,1.07.25,2.45-.82,3.07-1.07.62-2.45.25-3.07-.82l-2.13-3.69c-.21-.37-.31-.76-.3-1.16,0-.59.06-1.21-.19-1.74l-3.62-7.66h0s0,0,0,0c0,0,0,0,0,0h0V5.91Z"/>
    </g>
  </g>
</svg>