<svg width="21" height="26" viewBox="0 0 21 26" fill="none" xmlns="http://www.w3.org/2000/svg">
<path d="M12.2903 15.3224H12.4974L12.6438 15.1759L18.9642 8.85553C19.1585 9.64082 19.2632 10.4749 19.2632 11.3638C19.2632 13.2795 18.4921 15.4209 16.8775 17.8011C15.3179 20.1004 12.9909 22.5932 9.88162 25.2801C6.77239 22.5932 4.44537 20.1004 2.88573 17.8011C1.27118 15.4209 0.5 13.2795 0.5 11.3638C0.5 5.50396 4.95436 1.73517 9.88162 1.73517C10.6549 1.73517 11.4178 1.83619 12.1563 2.02077L5.82246 8.35459L5.67601 8.50104V8.70814V14.8224V15.3224H6.17601H12.2903Z" fill="#D4F85B" stroke="#141313"/>
<path d="M18.1669 4.74309L11.058 11.8519H9.14648V9.94042L16.2553 2.83157L18.1669 4.74309Z" fill="#D4F85B" stroke="#141313"/>
<path d="M20.2788 2.61879L20.2788 2.61876L20.2743 2.62324L19.7385 3.15903L17.827 1.24751L18.3582 0.716336C18.431 0.647951 18.5367 0.590718 18.6548 0.550595C18.7124 0.531028 18.7667 0.517722 18.8113 0.509555C18.8335 0.505501 18.8519 0.502963 18.866 0.5015C18.8786 0.500184 18.8852 0.499988 18.8862 0.499959C18.8864 0.499954 18.8864 0.499954 18.8862 0.499954C19.0733 0.499954 19.2583 0.570015 19.4147 0.71674L20.2866 1.58871C20.5723 1.87439 20.5724 2.33251 20.2788 2.61879Z" fill="#D4F85B" stroke="#141313"/>
</svg>
