<svg width="21" height="26" viewBox="0 0 21 26" fill="none" xmlns="http://www.w3.org/2000/svg">
<path d="M12.2903 14.8224H6.17601V8.70814L13.1055 1.77865C12.0803 1.43279 10.9933 1.23516 9.88162 1.23516C4.69377 1.23516 0 5.21251 0 11.3638C0 15.4647 3.29799 20.319 9.88162 25.9392C16.4652 20.319 19.7632 15.4647 19.7632 11.3638C19.7632 10.1163 19.5656 8.96753 19.2074 7.90525L12.2903 14.8224Z" fill="#C8C8C8"/>
<path d="M8.64648 12.3519H11.2651L18.874 4.7431L16.2553 2.12447L8.64648 9.73332V12.3519Z" fill="#C8C8C8"/>
<path d="M20.6402 1.23516L19.7632 0.35817C19.5162 0.123482 19.2074 -3.8147e-05 18.8862 -3.8147e-05C18.7256 -3.8147e-05 18.2933 0.086426 18.0092 0.35817L17.1199 1.24752L19.7385 3.86615L20.6278 2.9768C21.1219 2.49507 21.1219 1.71689 20.6402 1.23516Z" fill="#C8C8C8"/>
</svg>
