<svg width="22" height="22" viewBox="0 0 22 22" fill="none" xmlns="http://www.w3.org/2000/svg">
<path d="M20.8419 22L12.6274 13.7856C11.9897 14.3372 11.2496 14.7643 10.4072 15.0672C9.56454 15.3698 8.69244 15.5212 7.79092 15.5212C5.61336 15.5212 3.77043 14.7674 2.26213 13.26C0.754042 11.7526 0 9.92014 0 7.76266C0 5.60496 0.753722 3.77176 2.26117 2.26305C3.76861 0.754351 5.60269 0 7.76341 0C9.92412 0 11.7586 0.753818 13.2669 2.26146C14.7754 3.7693 15.5297 5.6024 15.5297 7.76074C15.5297 8.66289 15.3762 9.53561 15.0693 10.3789C14.7626 11.2222 14.3304 11.976 13.7727 12.6403L22 20.8333L20.8419 22ZM7.7778 13.9136C9.49277 13.9136 10.9455 13.3169 12.136 12.1234C13.3265 10.9297 13.9218 9.47536 13.9218 7.76042C13.9218 6.04548 13.3265 4.59127 12.136 3.39778C10.9455 2.2043 9.49277 1.60756 7.7778 1.60756C6.05559 1.60756 4.59666 2.2043 3.40103 3.39778C2.2054 4.59127 1.60758 6.04548 1.60758 7.76042C1.60758 9.47536 2.2054 10.9297 3.40103 12.1234C4.59666 13.3169 6.05559 13.9136 7.7778 13.9136Z" fill="#141313"/>
</svg>
