<svg width="26" height="26" viewBox="0 0 26 26" fill="none" xmlns="http://www.w3.org/2000/svg">
<path d="M22.5431 5.74936L22.3724 5.82695L22.2948 5.99764L21.2727 8.24624L20.2506 5.99764L20.173 5.82695L20.0024 5.74936L17.7538 4.72727L20.0024 3.70518L20.173 3.62759L20.2506 3.4569L21.2727 1.2083L22.2948 3.4569L22.3724 3.62759L22.5431 3.70518L24.7917 4.72727L22.5431 5.74936ZM11.9539 10.2524L12.0315 10.423L12.2022 10.5006L17.7008 13L12.2022 15.4994L12.0315 15.577L11.9539 15.7476L9.45455 21.2462L6.95518 15.7476L6.87759 15.577L6.7069 15.4994L1.2083 13L6.7069 10.5006L6.87759 10.423L6.95518 10.2524L9.45455 4.75376L11.9539 10.2524ZM20.0024 20.2506L20.173 20.173L20.2506 20.0024L21.2727 17.7538L22.2948 20.0024L22.3724 20.173L22.5431 20.2506L24.7917 21.2727L22.5431 22.2948L22.3724 22.3724L22.2948 22.5431L21.2727 24.7917L20.2506 22.5431L20.173 22.3724L20.0024 22.2948L17.7538 21.2727L20.0024 20.2506Z" fill="#D4F85B" stroke="#141313"/>
</svg>
